Coordinates
version=1
nRows=9
nColumns=63
inDegrees=yes

Units are S.I. units (second, meters, Newtons, ...)
If the header above contains a line with 'inDegrees', this indicates whether rotational values are in degrees (yes) or radians (no).

endheader
time	pelvis_tilt	pelvis_list	pelvis_rotation	pelvis_tx	pelvis_ty	pelvis_tz	hip_flexion_r	hip_adduction_r	hip_rotation_r	knee_angle_r	knee_angle_r_beta	ankle_angle_r	subtalar_angle_r	mtp_angle_r	hip_flexion_l	hip_adduction_l	hip_rotation_l	knee_angle_l	knee_angle_l_beta	ankle_angle_l	subtalar_angle_l	mtp_angle_l	L5_S1_Flex_Ext	L5_S1_Lat_Bending	L5_S1_axial_rotation	L4_L5_Flex_Ext	L4_L5_Lat_Bending	L4_L5_axial_rotation	L3_L4_Flex_Ext	L3_L4_Lat_Bending	L3_L4_axial_rotation	L2_L3_Flex_Ext	L2_L3_Lat_Bending	L2_L3_axial_rotation	L1_L2_Flex_Ext	L1_L2_Lat_Bending	L1_L2_axial_rotation	L1_T12_Flex_Ext	L1_T12_Lat_Bending	L1_T12_axial_rotation	Abs_r3	Abs_r2	Abs_r1	Abs_t1	Abs_t2	neck_flexion	neck_bending	neck_rotation	arm_flex_r	arm_add_r	arm_rot_r	elbow_flex_r	pro_sup_r	wrist_flex_r	wrist_dev_r	arm_flex_l	arm_add_l	arm_rot_l	elbow_flex_l	pro_sup_l	wrist_flex_l	wrist_dev_l
      3.76666667	    -14.40510710	     16.70221290	    -64.17073590	     -0.04184686	      0.94238644	     -0.81089170	     38.85782455	      4.84801063	    -29.96558353	     19.20875592	      0.33525604	    -11.92872037	    -16.33829939	      0.00000000	     23.68122329	     -5.98751228	     15.52208076	     37.35615761	      0.65198795	     16.53283090	    -14.08477460	      0.00000000	     -0.03339012	     -1.04484157	     -1.22745629	     -0.06200878	     -1.38963928	     -1.30417231	     -0.05485662	     -2.54042778	     -1.30417231	     -0.03816156	     -2.54042778	     -1.07402426	     -0.03100606	     -2.13064092	     -0.99730824	     -0.01907911	     -1.61845959	     -0.92059222	     -0.23850226	    -11.81945677	     -6.82674368	      0.00000000	      0.00000000	    -20.62397433	     10.89902469	     -8.31440490	    -33.40322125	    -37.78123084	    -78.33428910	    119.68998368	     89.99559364	      0.00000000	      0.00000000	     -1.40391423	    -47.84755658	    -11.63473224	     51.59848611	     89.99559364	      0.00000000	      0.00000000
      3.78333333	    -13.39585879	     15.41073779	    -64.99649826	     -0.03262817	      0.94029124	     -0.79608020	     36.81492223	      4.64292618	    -30.24533865	     21.69001534	      0.37856218	     -9.64953707	    -16.59810253	      0.00000000	     20.19448109	     -5.70727417	     14.94625229	     36.95802927	      0.64503930	     17.93250712	    -14.55666682	      0.00000000	     -0.03358423	     -0.79683536	     -1.49493397	     -0.06236927	     -1.05979103	     -1.58836734	     -0.05517553	     -1.93742550	     -1.58836734	     -0.03838341	     -1.93742550	     -1.30806722	     -0.03118631	     -1.62490667	     -1.21463385	     -0.01919003	     -1.23429798	     -1.12120047	     -0.23988877	     -9.01396098	     -8.31437423	      0.00000000	      0.00000000	    -21.34455395	      7.79604869	     -5.96613187	    -30.93424850	    -40.60755104	    -75.30681649	    117.60661158	     89.99559364	      0.00000000	      0.00000000	     -8.38695954	    -46.48499583	    -18.43716654	     52.69989271	     89.99559364	      0.00000000	      0.00000000
      3.80000000	    -12.21413567	     14.09554484	    -66.56052629	     -0.02487330	      0.93921726	     -0.78099893	     34.57067481	      4.64344496	    -29.29636279	     23.56074726	      0.41121261	     -7.52266142	    -16.29596485	      0.00000000	     16.43812928	     -5.42385824	     13.90782356	     36.47742191	      0.63665111	     19.04997083	    -14.74973674	      0.00000000	     -0.03301276	     -0.57351959	     -1.62060448	     -0.06130800	     -0.76278105	     -1.72189226	     -0.05423667	     -1.39445552	     -1.72189226	     -0.03773029	     -1.39445552	     -1.41802892	     -0.03065565	     -1.16952114	     -1.31674114	     -0.01886349	     -0.88838184	     -1.21545336	     -0.23580686	     -6.48776827	     -9.01331593	      0.00000000	      0.00000000	    -21.88492319	      6.02642297	     -4.50030631	    -27.79062014	    -43.24304829	    -72.34762092	    115.19134399	     89.99559364	      0.00000000	      0.00000000	    -13.74058447	    -45.55914666	    -23.35678252	     52.37626552	     89.99559364	      0.00000000	      0.00000000
      3.81666667	    -10.81954330	     12.84375926	    -68.63284566	     -0.01867032	      0.93924923	     -0.76629073	     32.38829196	      4.49872323	    -27.51676051	     25.18967125	      0.43964270	     -5.35809263	    -15.36809575	      0.00000000	     12.80968148	     -4.84261237	     12.66022936	     36.22187335	      0.63219095	     19.84428468	    -14.59246644	      0.00000000	     -0.03198688	     -0.38595773	     -1.43747223	     -0.05940284	     -0.51332378	     -1.52731425	     -0.05255125	     -0.93841761	     -1.52731425	     -0.03655781	     -0.93841761	     -1.25778820	     -0.02970302	     -0.78704499	     -1.16794619	     -0.01827731	     -0.59784852	     -1.07810418	     -0.22847911	     -4.36603099	     -7.99478932	      0.00000000	      0.00000000	    -22.65434395	      4.60731924	     -3.39753654	    -25.99151574	    -44.89633074	    -71.20400243	    112.86721617	     89.99559364	      0.00000000	      0.00000000	    -16.00385207	    -45.63927231	    -25.21021764	     50.89115826	     89.99559364	      0.00000000	      0.00000000
      3.83333333	     -9.06011778	     11.87274732	    -70.87402284	     -0.01406260	      0.94038308	     -0.75232146	     30.55225152	      3.81281134	    -25.26570673	     26.81447335	      0.46800085	     -3.30076987	    -14.24081324	      0.00000000	      9.85553572	     -3.62139024	     11.54064693	     36.48936870	      0.63685963	     20.24717611	    -13.97951186	      0.00000000	     -0.03171022	     -0.27112002	     -0.93422712	     -0.05888905	     -0.36058963	     -0.99261632	     -0.05209672	     -0.65920123	     -0.99261632	     -0.03624161	     -0.65920123	     -0.81744873	     -0.02944611	     -0.55286795	     -0.75905954	     -0.01811922	     -0.41996492	     -0.70067034	     -0.22650293	     -3.06696393	     -5.19589099	      0.00000000	      0.00000000	    -23.41967875	      4.31866444	     -3.55635751	    -26.73486359	    -44.93998868	    -72.45518990	    110.89209640	     89.99559364	      0.00000000	      0.00000000	    -15.36908480	    -47.02181924	    -24.74370954	     49.27615785	     89.99559364	      0.00000000	      0.00000000
      3.85000000	     -7.02510302	     11.28729336	    -72.96968034	     -0.01062787	      0.94233183	     -0.73938133	     29.11527150	      2.56957071	    -23.03092516	     28.24538229	      0.49297492	     -1.43752236	    -13.04687267	      0.00000000	      8.15956123	     -1.94306234	     10.30784981	     37.67949380	      0.65763123	     20.37228489	    -12.49058184	      0.00000000	     -0.03011390	     -0.22253520	     -0.11631578	     -0.05592452	     -0.29597182	     -0.12358552	     -0.04947413	     -0.54107209	     -0.12358552	     -0.03441718	     -0.54107209	     -0.10177631	     -0.02796377	     -0.45379378	     -0.09450657	     -0.01720708	     -0.34470703	     -0.08723684	     -0.21510057	     -2.51736271	     -0.64691350	      0.00000000	      0.00000000	    -24.06396301	      6.10336205	     -6.58886657	    -30.39594372	    -43.08231204	    -76.47140875	    109.28083551	     89.99559364	      0.00000000	      0.00000000	    -11.05596389	    -50.07709011	    -19.71646728	     47.34195166	     89.99559364	      0.00000000	      0.00000000
      3.86666667	     -4.91416122	     11.00033814	    -75.07871630	     -0.00753034	      0.94467449	     -0.72680576	     27.83638965	      1.12885131	    -21.08167320	     29.12242958	      0.50828228	      0.24861483	    -11.83507420	      0.00000000	      7.75737868	      0.04958437	      9.10568441	     39.93199676	      0.69694482	     19.90867838	    -11.25770993	      0.00000000	     -0.02561212	     -0.20070237	      0.83857959	     -0.04756427	     -0.26693415	      0.89099082	     -0.04207816	     -0.48798774	      0.89099082	     -0.02927209	     -0.48798774	      0.73375714	     -0.02378342	     -0.40927227	      0.68134592	     -0.01463477	     -0.31088797	      0.62893470	     -0.18294483	     -2.27038535	      4.66392812	      0.00000000	      0.00000000	    -24.24515181	      9.18050762	    -10.25773833	    -34.83750128	    -40.42976313	    -80.74699652	    107.66555587	     89.99559364	      0.00000000	      0.00000000	     -4.11927226	    -53.17293435	    -12.95337404	     45.22493659	     89.99559364	      0.00000000	      0.00000000
      3.88333333	     -2.88644934	     10.66956458	    -77.85002834	     -0.00434203	      0.94730929	     -0.71283708	     26.11742753	     -0.08506829	    -19.38527863	     29.11804321	      0.50820573	      2.07397469	     -9.87432600	      0.00000000	      8.00273830	      1.94762136	      7.05323672	     42.81287274	      0.74722559	     19.01451518	    -10.57450957	      0.00000000	     -0.02182884	     -0.15537587	      1.86237454	     -0.04053835	     -0.20664991	      1.97877295	     -0.03586261	     -0.37778089	      1.97877295	     -0.02494819	     -0.37778089	      1.62957772	     -0.02027026	     -0.31684247	      1.51317931	     -0.01247300	     -0.24067722	      1.39678091	     -0.15592125	     -1.75764291	     10.35796848	      0.00000000	      0.00000000	    -24.24812193	     12.36398212	    -13.28469568	    -38.76576866	    -38.26595945	    -83.58313864	    106.12947861	     89.99559364	      0.00000000	      0.00000000	      4.69040544	    -55.65876889	     -4.22454264	     42.06814050	     89.99559364	      0.00000000	      0.00000000
      3.90000000	     -1.20330891	     10.12283472	    -81.32666483	     -0.00063889	      0.95006779	     -0.69711088	     23.80856112	     -1.04713099	    -18.45518898	     28.30686801	      0.49404805	      4.17629066	     -6.11279936	      0.00000000	      8.54078118	      3.43596320	      4.15549635	     45.85734555	      0.80036167	     17.77357281	    -10.92295760	      0.00000000	     -0.01574731	     -0.03654058	      2.82510837	     -0.02924433	     -0.04859897	      3.00167764	     -0.02587126	     -0.08884477	      3.00167764	     -0.01799760	     -0.08884477	      2.47196982	     -0.01462295	     -0.07451355	      2.29540055	     -0.00899801	     -0.05660136	      2.11883128	     -0.11248148	     -0.41335437	     15.71240522	      0.00000000	      0.00000000	    -24.43297857	     14.24151072	    -14.72562988	    -41.86528602	    -37.44415543	    -84.92866540	    104.72579141	     89.99559364	      0.00000000	      0.00000000	     13.95515135	    -56.99573887	      5.07058148	     37.17347060	     89.99559364	      0.00000000	      0.00000000
